# xmcd CD database file
#
# Track frame offsets:
#	150
#	16275
#	29910
#	56815
#	84404
#	107201
#	132908
#	163196
#	184935
#	201531
#	230160
#	240425
#
# Disc length: 3544 seconds
#
# Revision: 0
# Processed by: cddbd v1.5.2PL0 Copyright (c) Steve Scherf et al.
# Submitted via: CDex 1.79
#
DISCID=af0dd60c
DTITLE=The Dukes Of Dixieland - Timeless - The Classic Collection CD 2
DYEAR=2006
DGENRE=Jazz
TTITLE0=Bogalusa Strut
TTITLE1=Yes Sir, Thats My Baby
TTITLE2=When The Saints Go Marching In
TTITLE3=Fidgety Feet
TTITLE4=When Its Sleepy Time Down South
TTITLE5=Dixieland One Step
TTITLE6=Do You Know What It Eans To Miss New Orleans
TTITLE7=Tiger Rag
TTITLE8=Swing That Music
TTITLE9=Creole Love Song
TTITLE10=Slide Frog Slide
TTITLE11=Cherokee
EXTD=YEAR: 2006
EXTT0=
EXTT1=
EXTT2=
EXTT3=
EXTT4=
EXTT5=
EXTT6=
EXTT7=
EXTT8=
EXTT9=
EXTT10=
EXTT11=
PLAYORDER=
